<svg aria-hidden="true" style="position: absolute; width: 0; height: 0; overflow: hidden;" version="1.1" xmlns="http://www.w3.org/2000/svg" xmlns:xlink="http://www.w3.org/1999/xlink">
<defs>
<symbol id="icon-bulb" viewBox="0 0 32 32">
<path d="M18.691 20.015c1.269-0.33 2.339-1.045 3.106-2.011l0.009-0.012c0.978-1.233 1.412-2.772 1.221-4.334-0.196-1.602-1.021-2.981-2.216-3.903l-0.013-0.010c-1.208-0.931-2.714-1.345-4.241-1.166s-2.895 0.932-3.855 2.118c-0.822 1.017-1.271 2.243-1.297 3.547-0.043 2.116-0.772 4.171-2.053 5.786l-1.403 1.767c-0.245 0.307-0.392 0.7-0.392 1.128 0 0.574 0.266 1.086 0.682 1.419l0.004 0.003 1.322 1.049c0.307 0.245 0.7 0.392 1.128 0.392 0.574 0 1.086-0.266 1.419-0.682l0.003-0.004 1.403-1.767c1.296-1.633 3.081-2.784 5.174-3.321zM12.154 14.259c0.021-1.179 0.445-2.255 1.138-3.101l-0.007 0.009c1.723-2.13 4.888-2.502 7.057-0.83 1.087 0.84 1.778 2.050 1.944 3.412 0.025 0.188 0.039 0.406 0.039 0.628 0 1.196-0.416 2.295-1.111 3.16l0.008-0.010c-0.677 0.852-1.609 1.476-2.68 1.755l-0.035 0.008c-2.205 0.565-4.101 1.763-5.492 3.466l-2.989-2.373c1.329-1.725 2.084-3.894 2.129-6.125zM8.694 22.063l0.188-0.237 2.721 2.719-0.074 0.093c-0.039 0.049-0.081 0.092-0.125 0.132l-0.001 0.001-2.709-2.707zM9.35 21.236l0.211-0.266 2.993 2.376-0.483 0.609-2.721-2.719zM8.709 23.76c-0.246-0.197-0.403-0.498-0.403-0.835 0-0.063 0.005-0.125 0.016-0.184l-0.001 0.006 2.292 2.29c-0.222-0.017-0.422-0.1-0.584-0.229l0.002 0.002-1.322-1.049z"></path>
<path d="M13.992 12.507c0.099-0.171 0.213-0.338 0.339-0.494 0.052-0.064 0.083-0.146 0.083-0.235 0-0.207-0.167-0.374-0.374-0.374-0.117 0-0.222 0.054-0.29 0.138l-0.001 0.001c-0.151 0.187-0.287 0.385-0.406 0.59-0.035 0.056-0.056 0.124-0.056 0.197 0 0.207 0.168 0.374 0.374 0.374 0.142 0 0.266-0.079 0.329-0.196l0.001-0.002zM12.185 18.324c0.063 0.050 0.144 0.081 0.232 0.081 0.16 0 0.297-0.1 0.35-0.242l0.001-0.003c0.437-1.149 0.703-2.476 0.732-3.862l0-0.012c0.005-0.219 0.028-0.438 0.069-0.65 0.005-0.024 0.008-0.051 0.008-0.079 0-0.206-0.167-0.374-0.374-0.374-0.184 0-0.336 0.132-0.368 0.307l-0 0.002c-0.048 0.231-0.078 0.5-0.083 0.774l-0 0.005c-0.027 1.31-0.276 2.555-0.711 3.707l0.025-0.077c-0.015 0.038-0.023 0.083-0.023 0.129 0 0.118 0.055 0.224 0.14 0.292l0.001 0.001zM19.519 17.811c-0.064-0.118-0.188-0.197-0.329-0.197-0.065 0-0.126 0.016-0.179 0.045l0.002-0.001c-0.264 0.142-0.547 0.252-0.842 0.328-0.163 0.043-0.281 0.189-0.281 0.362 0 0.206 0.167 0.374 0.374 0.374 0.033 0 0.065-0.004 0.096-0.012l-0.003 0.001c0.384-0.1 0.72-0.234 1.033-0.405l-0.024 0.012c0.118-0.064 0.197-0.188 0.197-0.329 0-0.065-0.017-0.126-0.046-0.179l0.001 0.002zM19.563 11.437c1.615 1.282 1.886 3.638 0.604 5.253-0.073 0.091-0.15 0.181-0.231 0.265-0.064 0.067-0.104 0.158-0.104 0.258 0 0.206 0.167 0.374 0.374 0.374 0.106 0 0.202-0.044 0.27-0.116l0-0c0.096-0.101 0.189-0.207 0.276-0.317 1.538-1.938 1.213-4.766-0.725-6.304-0.063-0.050-0.144-0.081-0.232-0.081-0.206 0-0.374 0.167-0.374 0.374 0 0.118 0.055 0.224 0.141 0.292l0.001 0.001z"></path>
<path d="M21.266 9.291c0.162 0.129 0.397 0.101 0.525-0.060l1.302-1.64c0.051-0.063 0.081-0.144 0.081-0.233 0-0.207-0.167-0.374-0.374-0.374-0.118 0-0.224 0.055-0.292 0.141l-0.001 0.001-1.302 1.64c-0.050 0.063-0.081 0.144-0.081 0.232 0 0.118 0.055 0.224 0.141 0.292l0.001 0.001zM17.843 7.518c-0.003 0.016-0.004 0.036-0.004 0.055 0 0.207 0.167 0.374 0.374 0.374 0.187 0 0.342-0.137 0.37-0.317l0-0.002 0.307-2.071c0.003-0.016 0.004-0.036 0.004-0.055 0-0.207-0.167-0.374-0.374-0.374-0.187 0-0.342 0.138-0.37 0.317l-0 0.002-0.307 2.071zM20.857 22.66l-0.769-1.947c-0.056-0.14-0.191-0.237-0.348-0.237-0.207 0-0.374 0.167-0.374 0.374 0 0.049 0.010 0.097 0.027 0.14l-0.001-0.003 0.769 1.947c0.056 0.14 0.191 0.237 0.348 0.237 0.206 0 0.374-0.167 0.374-0.374 0-0.049-0.010-0.097-0.027-0.14l0.001 0.003zM13.539 6.173l0.769 1.947c0.056 0.14 0.191 0.237 0.348 0.237 0.206 0 0.374-0.167 0.374-0.374 0-0.049-0.010-0.097-0.027-0.14l0.001 0.003-0.769-1.947c-0.056-0.14-0.191-0.237-0.348-0.237-0.206 0-0.374 0.167-0.374 0.374 0 0.049 0.010 0.097 0.027 0.14l-0.001-0.003zM24.488 19.726l-1.64-1.302c-0.063-0.050-0.144-0.081-0.232-0.081-0.206 0-0.374 0.167-0.374 0.374 0 0.118 0.055 0.224 0.141 0.292l0.001 0.001 1.64 1.302c0.063 0.051 0.144 0.081 0.233 0.081 0.207 0 0.374-0.167 0.374-0.374 0-0.118-0.055-0.224-0.141-0.292l-0.001-0.001zM12.073 10.349c0.051-0.063 0.081-0.144 0.081-0.233 0-0.118-0.055-0.224-0.141-0.292l-0.001-0.001-1.64-1.302c-0.063-0.051-0.144-0.081-0.233-0.081-0.207 0-0.374 0.167-0.374 0.374 0 0.118 0.055 0.224 0.141 0.292l0.001 0.001 1.64 1.302c0.162 0.129 0.397 0.101 0.525-0.060zM23.809 15.725c0.050 0.039 0.11 0.067 0.177 0.077l2.070 0.307c0.017 0.003 0.036 0.004 0.055 0.004 0.207 0 0.374-0.167 0.374-0.374 0-0.187-0.138-0.342-0.317-0.37l-0.002-0-2.070-0.307c-0.017-0.003-0.036-0.004-0.055-0.004-0.206 0-0.374 0.167-0.374 0.374 0 0.118 0.055 0.224 0.141 0.293l0.001 0.001zM10.409 13.031l-2.070-0.307c-0.017-0.003-0.036-0.004-0.055-0.004-0.207 0-0.374 0.167-0.374 0.374 0 0.187 0.137 0.342 0.317 0.37l0.002 0 2.071 0.307c0.016 0.003 0.035 0.004 0.055 0.004 0.207 0 0.374-0.167 0.374-0.374 0-0.187-0.138-0.342-0.317-0.37l-0.002-0zM23.284 12.012c0.056 0.14 0.191 0.237 0.348 0.237 0.050 0 0.097-0.010 0.14-0.027l-0.003 0.001 1.947-0.769c0.14-0.056 0.237-0.191 0.237-0.348 0-0.207-0.167-0.374-0.374-0.374-0.049 0-0.097 0.010-0.14 0.027l0.003-0.001-1.947 0.769c-0.14 0.056-0.237 0.191-0.237 0.348 0 0.050 0.010 0.097 0.027 0.14l-0.001-0.002z"></path>
</symbol>
</defs>
</svg>
